<?xml version="1.0" standalone="no"?>
<!DOCTYPE svg PUBLIC "-//W3C//DTD SVG 20010904//EN"
 "http://www.w3.org/TR/2001/REC-SVG-20010904/DTD/svg10.dtd">
<svg version="1.0" xmlns="http://www.w3.org/2000/svg"
 width="1279.000000pt" height="758.000000pt" viewBox="0 0 1279.000000 758.000000"
 preserveAspectRatio="xMidYMid meet">

<g transform="translate(0.000000,758.000000) scale(0.100000,-0.100000)"
fill="#000000" stroke="none">
<path d="M0 3790 l0 -3790 6395 0 6395 0 0 3790 0 3790 -6395 0 -6395 0 0
-3790z m11848 3668 c8 -10 4 -13 -18 -13 -22 0 -26 3 -18 13 6 6 14 12 18 12
4 0 12 -6 18 -12z m-10203 -63 l0 -60 -75 0 -75 0 -3 49 c-5 75 -3 77 80 74
l73 -3 0 -60z m7610 45 c0 -9 -10 -15 -24 -15 -31 -1 -50 -29 -35 -52 16 -26
51 -28 66 -4 14 22 28 28 28 11 0 -17 -39 -50 -60 -50 -26 0 -60 34 -60 60 0
26 48 72 69 68 9 -2 16 -10 16 -18z m3093 -23 c5 -54 -31 -90 -85 -85 -36 3
-38 5 -41 41 -5 55 28 88 83 85 39 -3 40 -4 43 -41z m-11920 21 c7 -7 12 -26
12 -43 0 -39 -16 -55 -55 -55 -39 0 -55 16 -55 55 0 39 16 55 55 55 17 0 36
-5 43 -12z m193 2 c21 -12 25 -50 9 -81 -21 -38 -100 -17 -100 27 0 57 40 81
91 54z m309 1 c0 -5 -7 -14 -15 -21 -19 -16 -19 -29 2 -52 28 -31 5 -33 -27
-3 l-30 29 27 28 c27 28 43 35 43 19z m4299 -2778 c14 -11 34 -36 45 -57 15
-31 16 -44 7 -81 -6 -24 -132 -342 -281 -707 l-269 -663 107 -6 c59 -3 119
-11 133 -17 103 -42 87 -193 -26 -251 -48 -25 -55 -26 -245 -26 -188 0 -197 1
-245 25 -64 32 -95 77 -95 140 0 26 5 62 11 81 31 92 595 1469 614 1500 53 82
173 113 244 62z m2144 13 c46 -19 78 -58 84 -103 6 -43 0 -60 -160 -449 l-95
-232 82 5 c67 4 91 1 140 -17 149 -57 230 -200 229 -405 -1 -121 -21 -213 -70
-315 -49 -103 -171 -226 -269 -272 -68 -32 -72 -33 -204 -32 -147 1 -191 12
-256 68 l-32 26 -16 -25 c-57 -87 -237 -91 -281 -5 -33 65 -30 74 300 887 173
426 326 790 339 808 49 64 140 91 209 61z m-1650 -380 c71 -29 127 -129 111
-199 -21 -99 -90 -157 -185 -157 -158 1 -241 169 -148 301 41 59 150 86 222
55z m4754 -76 c74 -44 79 -116 18 -247 -19 -42 -35 -80 -35 -84 0 -5 23 -9 50
-9 58 0 106 -18 134 -49 27 -30 27 -106 0 -152 -33 -57 -93 -82 -207 -89 l-98
-5 -89 -216 -88 -217 117 -4 c129 -4 171 -19 192 -70 15 -37 6 -114 -18 -147
-10 -14 -41 -37 -69 -51 -47 -24 -56 -25 -239 -25 -160 0 -198 3 -237 18 -84
32 -129 108 -114 190 3 17 51 142 105 277 l100 245 -51 7 c-63 8 -100 34 -112
80 -14 55 1 107 43 149 42 43 91 59 177 59 l61 0 52 128 c59 143 86 183 139
212 49 26 127 26 169 0z m-1125 -160 c20 -6 49 -25 63 -42 26 -30 26 -34 20
-122 -8 -116 3 -147 96 -278 38 -54 87 -133 107 -175 32 -68 37 -89 40 -169 5
-105 -10 -163 -60 -239 -41 -62 -131 -128 -215 -157 -63 -21 -85 -23 -283 -23
-156 0 -226 4 -253 14 -108 38 -97 192 18 251 45 23 63 25 215 30 183 6 217
16 245 70 26 50 19 99 -31 200 l-45 94 -25 -55 c-53 -115 -133 -161 -221 -128
-42 16 -82 58 -89 95 -8 46 4 77 129 332 127 259 156 296 247 311 3 1 22 -4
42 -9z m-6515 -194 c84 -46 141 -132 163 -244 16 -77 8 -242 -15 -327 -38
-145 -141 -305 -239 -372 -73 -50 -141 -66 -282 -66 -143 -1 -198 13 -254 60
l-40 35 -14 -34 c-8 -18 -89 -217 -180 -442 -91 -225 -178 -429 -192 -453 -32
-54 -90 -94 -149 -100 -55 -7 -97 10 -131 50 -23 27 -26 38 -21 82 3 34 112
312 346 890 188 462 349 851 359 865 34 45 81 70 134 70 55 0 80 -10 120 -48
l28 -26 22 21 c57 52 124 73 218 70 60 -3 86 -9 127 -31z m973 5 c25 -13 59
-36 76 -52 l30 -29 25 26 c109 117 305 63 286 -80 -4 -23 -55 -162 -116 -311
l-110 -270 112 -6 c132 -6 171 -22 194 -77 13 -31 14 -45 4 -82 -26 -96 -90
-130 -260 -137 -151 -7 -221 7 -263 52 l-32 33 -48 -33 c-65 -45 -137 -59
-269 -52 -132 7 -189 29 -254 98 -55 59 -80 111 -96 203 -21 122 0 243 66 381
83 171 214 293 375 347 79 26 218 21 280 -11z m4628 19 c105 -25 190 -86 237
-171 23 -43 30 -69 33 -134 5 -100 -21 -178 -79 -236 -81 -81 -152 -99 -399
-99 -108 0 -180 -4 -180 -10 0 -5 5 -20 11 -33 22 -49 35 -52 334 -57 177 -4
290 -10 306 -17 103 -45 88 -194 -26 -252 -48 -25 -57 -26 -267 -30 -289 -4
-390 7 -488 56 -56 29 -84 50 -112 88 -60 79 -73 130 -73 280 0 115 4 138 27
203 37 103 82 175 159 251 71 72 170 131 260 155 63 17 195 20 257 6z m-2807
-25 c39 -21 69 -71 69 -115 0 -21 -44 -146 -113 -317 l-113 -283 95 0 c169 0
221 -29 221 -123 0 -70 -28 -114 -95 -147 -48 -24 -57 -25 -240 -25 l-190 0
-60 30 c-76 38 -105 79 -105 147 0 40 26 114 140 395 77 190 151 361 165 380
51 66 157 93 226 58z m557 -689 c65 -34 105 -99 105 -171 0 -141 -141 -227
-271 -164 -135 66 -134 262 3 333 37 20 127 21 163 2z"/>
<path d="M1512 7398 c-2 -37 2 -48 13 -48 11 0 15 11 14 48 -2 45 -2 46 -9 12
l-7 -35 -5 35 c-4 32 -5 31 -6 -12z"/>
<path d="M1560 7395 c0 -45 0 -45 35 -45 35 0 35 0 35 45 0 45 0 45 -35 45
-35 0 -35 0 -35 -45z"/>
<path d="M12290 7431 c14 -4 27 -17 31 -31 6 -23 7 -22 8 8 1 30 -1 32 -31 31
-30 -1 -31 -2 -8 -8z"/>
<path d="M12240 7380 c0 -27 3 -30 30 -30 27 0 30 3 30 30 0 27 -3 30 -30 30
-27 0 -30 -3 -30 -30z"/>
<path d="M7155 3618 c-65 -36 -100 -89 -170 -261 l-54 -132 26 -27 c57 -59
142 -74 213 -38 49 25 112 107 145 189 48 116 45 199 -6 251 -26 26 -38 30
-82 30 -29 0 -61 -6 -72 -12z"/>
<path d="M2533 3630 c-43 -10 -76 -33 -107 -73 -36 -47 -139 -305 -132 -331
19 -75 141 -110 230 -66 138 67 232 388 133 453 -29 19 -85 27 -124 17z"/>
<path d="M3605 3606 c-109 -50 -205 -206 -205 -330 0 -51 27 -107 60 -123 53
-27 160 -10 199 31 31 33 141 306 141 350 0 39 -24 70 -66 86 -40 15 -75 12
-129 -14z"/>
<path d="M8265 3621 c-16 -4 -39 -13 -51 -19 -26 -14 -94 -88 -94 -103 0 -9
33 -10 115 -7 127 6 165 20 165 62 0 53 -64 85 -135 67z"/>
</g>
</svg>
